HIERARCHY
ROOT Hips
{
	OFFSET 0.000000 71.427986 0.000000
	CHANNELS 6 Xposition Yposition Zposition Xrotation Yrotation Zrotation
	JOINT Pelvis
	{
		OFFSET 0.000000 0.000000 0.000000
		CHANNELS 3 Xrotation Yrotation Zrotation
		JOINT LeftUpLeg
		{
			OFFSET 6.797100 -2.508499 -1.318700
			CHANNELS 3 Xrotation Yrotation Zrotation
			JOINT LeftLeg
			{
				OFFSET 0.069008 -29.241863 0.690200
				CHANNELS 3 Xrotation Yrotation Zrotation
				JOINT LeftFoot
				{
					OFFSET -0.069008 -29.568123 -0.266800
					CHANNELS 3 Xrotation Yrotation Zrotation
					JOINT LeftToeBase
					{
						OFFSET 3.145500 -8.631000 16.059900
						CHANNELS 3 Xrotation Yrotation Zrotation
						End Site
						{
							OFFSET 0.000000 18.501587 0.000000
						}
					}
				}
			}
			JOINT Left_ShortSleeve
			{
				OFFSET 0.265923 -10.480953 1.153800
				CHANNELS 3 Xrotation Yrotation Zrotation
				End Site
				{
					OFFSET 1.725763 19.823879 0.000000
				}
			}
		}
		JOINT RightUpLeg
		{
			OFFSET -6.797100 -2.508499 -1.318700
			CHANNELS 3 Xrotation Yrotation Zrotation
			JOINT RightLeg
			{
				OFFSET -0.082453 -29.241932 0.688000
				CHANNELS 3 Xrotation Yrotation Zrotation
				JOINT RightFoot
				{
					OFFSET 0.082453 -29.568058 -0.264600
					CHANNELS 3 Xrotation Yrotation Zrotation
					JOINT RightToeBase
					{
						OFFSET -3.115300 -8.682800 16.113400
						CHANNELS 3 Xrotation Yrotation Zrotation
						End Site
						{
							OFFSET 0.000000 18.567114 0.000000
						}
					}
				}
			}
			JOINT Right_ShortSleeve
			{
				OFFSET -0.265923 -10.480953 1.153800
				CHANNELS 3 Xrotation Yrotation Zrotation
				End Site
				{
					OFFSET -1.725766 19.823910 0.000000
				}
			}
		}
	}
	JOINT Spine
	{
		OFFSET 0.000000 13.368103 0.470500
		CHANNELS 3 Xrotation Yrotation Zrotation
		JOINT Spine1
		{
			OFFSET 0.147000 13.837402 0.538800
			CHANNELS 3 Xrotation Yrotation Zrotation
			JOINT Spine2
			{
				OFFSET 0.168000 16.242897 -1.435500
				CHANNELS 3 Xrotation Yrotation Zrotation
				JOINT Neck
				{
					OFFSET 0.217200 18.631500 -1.679100
					CHANNELS 3 Xrotation Yrotation Zrotation
					JOINT Head
					{
						OFFSET 0.000000 6.599396 1.385900
						CHANNELS 3 Xrotation Yrotation Zrotation
						JOINT Hat
						{
							OFFSET -0.532200 27.220596 -10.096100
							CHANNELS 3 Xrotation Yrotation Zrotation
							End Site
							{
								OFFSET 0.000000 22.029861 0.000000
							}
						}
						JOINT HairD
						{
							OFFSET -10.777400 17.437393 -1.325900
							CHANNELS 3 Xrotation Yrotation Zrotation
							JOINT HairD1
							{
								OFFSET -3.290299 -11.051193 1.062200
								CHANNELS 3 Xrotation Yrotation Zrotation
								End Site
								{
									OFFSET 0.000000 11.579437 0.000000
								}
							}
						}
						JOINT HairB
						{
							OFFSET -10.777400 17.437393 1.467900
							CHANNELS 3 Xrotation Yrotation Zrotation
							JOINT HairB1
							{
								OFFSET -1.561200 -12.956299 3.590200
								CHANNELS 3 Xrotation Yrotation Zrotation
								End Site
								{
									OFFSET 0.000000 13.534866 0.000000
								}
							}
						}
						JOINT HairA
						{
							OFFSET 9.713100 17.437393 1.467900
							CHANNELS 3 Xrotation Yrotation Zrotation
							JOINT HairA1
							{
								OFFSET 1.561200 -12.956299 3.590200
								CHANNELS 3 Xrotation Yrotation Zrotation
								End Site
								{
									OFFSET 0.000000 13.534866 0.000000
								}
							}
						}
						JOINT HairC
						{
							OFFSET 9.713100 17.437393 -1.325900
							CHANNELS 3 Xrotation Yrotation Zrotation
							JOINT HairC1
							{
								OFFSET 3.290300 -11.051193 1.062200
								CHANNELS 3 Xrotation Yrotation Zrotation
								End Site
								{
									OFFSET 0.000000 11.579437 0.000000
								}
							}
						}
					}
				}
				JOINT LeftShoulder
				{
					OFFSET 5.101800 15.108002 -2.763700
					CHANNELS 3 Xrotation Yrotation Zrotation
					JOINT LeftArm
					{
						OFFSET 9.825497 2.506317 -1.597400
						CHANNELS 3 Xrotation Yrotation Zrotation
						JOINT LeftForeArm
						{
							OFFSET 21.966244 0.000000 0.000000
							CHANNELS 3 Xrotation Yrotation Zrotation
							JOINT LeftHand
							{
								OFFSET 33.879036 0.000000 0.000000
								CHANNELS 3 Xrotation Yrotation Zrotation
								JOINT LeftHandThumb1
								{
									OFFSET 6.715286 -2.359680 3.363841
									CHANNELS 3 Xrotation Yrotation Zrotation
									JOINT LeftHandThumb2
									{
										OFFSET 2.507072 -1.447464 1.447461
										CHANNELS 3 Xrotation Yrotation Zrotation
										JOINT LeftHandThumb3
										{
											OFFSET 2.898338 -1.673355 1.673357
											CHANNELS 3 Xrotation Yrotation Zrotation
											End Site
											{
												OFFSET -0.295959 3.727692 -0.131651
											}
										}
									}
								}
								JOINT LeftHandIndex1
								{
									OFFSET 14.190811 -0.254547 3.840278
									CHANNELS 3 Xrotation Yrotation Zrotation
									JOINT LeftHandIndex2
									{
										OFFSET 3.551727 0.000000 -0.000000
										CHANNELS 3 Xrotation Yrotation Zrotation
										JOINT LeftHandIndex3
										{
											OFFSET 2.894196 0.000000 0.000000
											CHANNELS 3 Xrotation Yrotation Zrotation
											End Site
											{
												OFFSET -1.000603 2.690872 0.366626
											}
										}
									}
								}
								JOINT LeftHandMiddle1
								{
									OFFSET 13.776489 0.000000 0.000000
									CHANNELS 3 Xrotation Yrotation Zrotation
									JOINT LeftHandMiddle2
									{
										OFFSET 3.438232 0.000000 0.000000
										CHANNELS 3 Xrotation Yrotation Zrotation
										JOINT LeftHandMiddle3
										{
											OFFSET 3.691551 0.000000 0.000000
											CHANNELS 3 Xrotation Yrotation Zrotation
											End Site
											{
												OFFSET -1.082298 3.499527 0.457670
											}
										}
									}
								}
								JOINT LeftHandRing1
								{
									OFFSET 13.966164 -0.268127 -3.067488
									CHANNELS 3 Xrotation Yrotation Zrotation
									JOINT LeftHandRing2
									{
										OFFSET 3.162567 0.000000 0.000000
										CHANNELS 3 Xrotation Yrotation Zrotation
										JOINT LeftHandRing3
										{
											OFFSET 3.324348 0.000000 0.000000
											CHANNELS 3 Xrotation Yrotation Zrotation
											End Site
											{
												OFFSET -0.861900 3.184998 0.405154
											}
										}
									}
								}
								JOINT LeftHandPinky1
								{
									OFFSET 13.131393 -0.168503 -5.746925
									CHANNELS 3 Xrotation Yrotation Zrotation
									JOINT LeftHandPinky2
									{
										OFFSET 2.849182 0.000000 0.000000
										CHANNELS 3 Xrotation Yrotation Zrotation
										JOINT LeftHandPinky3
										{
											OFFSET 2.805038 0.000000 0.000000
											CHANNELS 3 Xrotation Yrotation Zrotation
											End Site
											{
												OFFSET -0.882500 2.642609 0.325652
											}
										}
									}
								}
							}
							JOINT Left_Sleeve
							{
								OFFSET 6.592125 -0.646545 0.805568
								CHANNELS 3 Xrotation Yrotation Zrotation
								End Site
								{
									OFFSET -0.000179 20.275787 -0.000000
								}
							}
						}
					}
				}
				JOINT RightShoulder
				{
					OFFSET -5.731700 15.108002 -2.763700
					CHANNELS 3 Xrotation Yrotation Zrotation
					JOINT RightArm
					{
						OFFSET -9.825497 2.506317 -1.597400
						CHANNELS 3 Xrotation Yrotation Zrotation
						JOINT RightForeArm
						{
							OFFSET -21.966242 0.000000 0.000000
							CHANNELS 3 Xrotation Yrotation Zrotation
							JOINT RightHand
							{
								OFFSET -33.879032 0.000000 0.000000
								CHANNELS 3 Xrotation Yrotation Zrotation
								JOINT RightHandThumb1
								{
									OFFSET -6.715286 -2.359680 3.363841
									CHANNELS 3 Xrotation Yrotation Zrotation
									JOINT RightHandThumb2
									{
										OFFSET -2.507072 -1.447464 1.447461
										CHANNELS 3 Xrotation Yrotation Zrotation
										JOINT RightHandThumb3
										{
											OFFSET -2.898338 -1.673355 1.673357
											CHANNELS 3 Xrotation Yrotation Zrotation
											End Site
											{
												OFFSET 0.295959 3.727692 -0.131651
											}
										}
									}
								}
								JOINT RightHandIndex1
								{
									OFFSET -14.190811 -0.254547 3.840278
									CHANNELS 3 Xrotation Yrotation Zrotation
									JOINT RightHandIndex2
									{
										OFFSET -3.551727 0.000000 -0.000000
										CHANNELS 3 Xrotation Yrotation Zrotation
										JOINT RightHandIndex3
										{
											OFFSET -2.894196 0.000000 0.000000
											CHANNELS 3 Xrotation Yrotation Zrotation
											End Site
											{
												OFFSET 1.000603 2.690872 0.366626
											}
										}
									}
								}
								JOINT RightHandMiddle1
								{
									OFFSET -13.776489 0.000000 0.000000
									CHANNELS 3 Xrotation Yrotation Zrotation
									JOINT RightHandMiddle2
									{
										OFFSET -3.438232 0.000000 0.000000
										CHANNELS 3 Xrotation Yrotation Zrotation
										JOINT RightHandMiddle3
										{
											OFFSET -3.691551 0.000000 0.000000
											CHANNELS 3 Xrotation Yrotation Zrotation
											End Site
											{
												OFFSET 1.082298 3.499527 0.457670
											}
										}
									}
								}
								JOINT RightHandRing1
								{
									OFFSET -13.966164 -0.268127 -3.067488
									CHANNELS 3 Xrotation Yrotation Zrotation
									JOINT RightHandRing2
									{
										OFFSET -3.162567 0.000000 0.000000
										CHANNELS 3 Xrotation Yrotation Zrotation
										JOINT RightHandRing3
										{
											OFFSET -3.324348 0.000000 0.000000
											CHANNELS 3 Xrotation Yrotation Zrotation
											End Site
											{
												OFFSET 0.861900 3.184998 0.405154
											}
										}
									}
								}
								JOINT RightHandPinky1
								{
									OFFSET -13.131393 -0.168503 -5.746925
									CHANNELS 3 Xrotation Yrotation Zrotation
									JOINT RightHandPinky2
									{
										OFFSET -2.849182 0.000000 0.000000
										CHANNELS 3 Xrotation Yrotation Zrotation
										JOINT RightHandPinky3
										{
											OFFSET -2.805038 0.000000 0.000000
											CHANNELS 3 Xrotation Yrotation Zrotation
											End Site
											{
												OFFSET 0.882500 2.642609 0.325652
											}
										}
									}
								}
							}
							JOINT Right_Sleeve
							{
								OFFSET -6.592125 -0.646545 0.805568
								CHANNELS 3 Xrotation Yrotation Zrotation
								End Site
								{
									OFFSET 0.000179 20.275787 -0.000000
								}
							}
						}
					}
				}
				JOINT Bind_Right_JacketString
				{
					OFFSET -3.534800 11.969597 7.200700
					CHANNELS 3 Xrotation Yrotation Zrotation
					JOINT Bind_Right_JacketString1
					{
						OFFSET -0.319900 -6.102600 2.794100
						CHANNELS 3 Xrotation Yrotation Zrotation
						End Site
						{
							OFFSET 0.000000 6.719452 0.000000
						}
					}
				}
				JOINT Bind_Left_JacketString
				{
					OFFSET 2.904800 11.969597 7.200700
					CHANNELS 3 Xrotation Yrotation Zrotation
					JOINT Bind_Left_JacketString1
					{
						OFFSET 0.364800 -5.904503 3.186800
						CHANNELS 3 Xrotation Yrotation Zrotation
						End Site
						{
							OFFSET 0.000000 6.719513 0.000000
						}
					}
				}
				JOINT HairE
				{
					OFFSET 5.915200 17.612701 -11.592200
					CHANNELS 3 Xrotation Yrotation Zrotation
					JOINT HairE1
					{
						OFFSET 0.289200 -7.171898 -1.284500
						CHANNELS 3 Xrotation Yrotation Zrotation
						End Site
						{
							OFFSET 0.000000 7.291756 0.000000
						}
					}
				}
				JOINT HairF
				{
					OFFSET -0.864800 17.612701 -11.592200
					CHANNELS 3 Xrotation Yrotation Zrotation
					JOINT HairF1
					{
						OFFSET 0.000000 -14.087097 -2.127501
						CHANNELS 3 Xrotation Yrotation Zrotation
						End Site
						{
							OFFSET 0.000000 14.246841 0.000000
						}
					}
				}
				JOINT HairG
				{
					OFFSET -8.087700 17.612701 -11.592200
					CHANNELS 3 Xrotation Yrotation Zrotation
					JOINT HairG1
					{
						OFFSET -0.293600 -6.081398 -0.910100
						CHANNELS 3 Xrotation Yrotation Zrotation
						End Site
						{
							OFFSET 0.000000 6.156120 0.000000
						}
					}
				}
			}
		}
	}
	JOINT Pouch
	{
		OFFSET 0.000000 4.394501 10.847300
		CHANNELS 3 Xrotation Yrotation Zrotation
		End Site
		{
			OFFSET 0.000000 21.880577 0.000000
		}
	}
	JOINT Bag
	{
		OFFSET -13.229000 4.813004 -0.593300
		CHANNELS 3 Xrotation Yrotation Zrotation
		End Site
		{
			OFFSET 0.000000 21.880577 0.000000
		}
	}
	JOINT OccupyGuyFacialAnim_Joint
	{
		OFFSET 1.000000 -70.206398 -1.655000
		CHANNELS 3 Xrotation Yrotation Zrotation
		End Site
		{
			OFFSET 0.000000 21.880577 0.000000
		}
	}
}
MOTION
Frames: 4
Frame Time: 0.033333
147.472183 10.828964 53.480999 97.584258 10.446497 -116.083382 0.000000 -0.000000 -0.000001 -12.120867 17.321449 10.358820 60.287928 0.710002 -1.598724 -21.270497 -0.889978 -5.022852 0.000001 -0.000000 -0.000000 -0.000001 -0.000001 -0.000000 -3.526029 13.372732 -0.131203 27.432987 1.495131 0.299726 17.521358 10.875793 30.724359 -0.000002 -0.000001 0.000000 0.000001 -0.000001 -0.000003 -0.555744 -1.730970 -1.022917 -1.019042 -4.047107 0.502689 -1.019052 -4.047103 0.502687 12.945579 -3.849631 -2.314426 -9.417709 -28.699075 8.551895 -0.000002 0.000001 -0.000000 -0.000002 0.000001 -0.000000 -0.000002 0.000001 -0.000001 -0.000002 0.000001 0.000000 -0.000000 -0.000001 0.000000 -0.000002 0.000001 0.000000 -0.000000 -0.000001 0.000000 -0.000002 0.000001 -0.000000 -0.000002 0.000001 -0.000000 5.066173 -35.328631 0.182157 -65.361345 40.091056 1.110524 -0.000060 -128.453250 -0.000046 36.623570 -2.909215 34.939146 4.474547 3.222767 11.997074 5.672668 12.314616 1.656611 0.000000 0.000001 -0.000003 -1.406192 -3.389259 -17.882320 0.812640 3.250072 -28.069692 0.000001 0.000000 0.000002 0.305890 2.033328 -17.117480 0.821623 3.266837 -28.227712 0.000002 -0.000000 0.000001 0.307040 2.037036 -17.139224 0.819635 3.263143 -28.192825 -0.000001 -0.000000 -0.000000 3.233617 11.697309 -16.311219 0.816306 -0.822120 -28.418356 -0.000000 -0.000000 0.000003 0.000000 0.000001 0.000001 0.672747 3.731444 -4.826319 -7.738555 -3.958432 92.905838 -0.000304 99.231720 0.000324 -33.564011 3.500873 81.016057 -3.099122 -6.796000 -6.509656 0.937923 -0.115751 1.884212 -0.000000 -0.000001 0.000000 0.648461 -2.939002 24.007435 0.156011 -1.467556 12.135294 -0.000002 -0.000001 -0.000002 0.660838 -2.965408 24.259449 0.143306 -1.407209 11.628924 0.000001 -0.000001 -0.000003 0.665160 -2.974625 24.324443 0.140394 -1.392978 11.509848 -0.000000 -0.000000 -0.000002 0.670375 -2.986164 24.327725 0.140510 -1.393511 11.514108 -0.000000 0.000001 0.000002 0.000001 0.000001 -0.000001 0.000001 0.000000 -0.000001 -0.000001 0.000000 -0.000001 0.000001 0.000000 -0.000001 0.000001 0.000000 -0.000001 0.000001 0.000000 -0.000001 -0.000001 0.000000 -0.000001 0.000001 0.000000 -0.000001 0.000001 0.000000 -0.000001 0.000001 0.000000 -0.000001 -0.000001 0.000000 -0.000001 0.000000 -0.000000 -0.000001 0.000000 -0.000000 -0.000001 0.000000 -0.000000 -0.000001 
146.827621 11.839695 53.853760 99.371261 9.521964 -116.329009 -0.000000 0.000001 -0.000001 -9.578282 18.112711 8.472738 52.299599 11.299437 -1.166199 -22.873590 3.532029 -12.402037 0.000003 0.000001 -0.000001 -0.000001 0.000000 -0.000003 -5.711876 14.842455 -0.057512 29.463541 2.033278 0.388328 16.581427 8.045782 33.743447 -0.000001 -0.000001 0.000000 -0.000002 0.000003 -0.000004 -0.114154 -1.728061 -0.997603 -0.140275 -3.898782 0.487573 -0.140284 -3.898780 0.487574 12.589354 -3.825324 -1.987802 -13.001299 -29.012297 8.011098 -0.000002 0.000000 -0.000001 -0.000002 0.000000 -0.000001 -0.000002 0.000000 -0.000002 -0.000002 0.000000 -0.000001 -0.000002 -0.000001 0.000001 -0.000002 0.000000 -0.000001 -0.000002 -0.000001 0.000001 -0.000002 0.000000 -0.000001 -0.000002 0.000000 -0.000001 5.513083 -35.886330 1.271723 -67.418434 36.510602 -0.571628 0.000037 -125.633776 0.000035 35.869182 -1.362599 33.911917 4.473801 3.234869 11.999567 5.672662 12.314604 1.656602 0.000001 0.000000 -0.000004 -1.415134 -3.359141 -18.058132 0.828863 3.280263 -28.354516 0.000001 0.000001 -0.000000 0.313085 2.056536 -17.319053 0.835227 3.292018 -28.465527 -0.000000 -0.000000 0.000001 0.314990 2.062612 -17.361405 0.830797 3.283852 -28.388315 -0.000001 0.000000 0.000001 3.276262 11.706061 -16.528851 0.828570 -0.799549 -28.631093 -0.000001 0.000000 0.000001 0.000000 0.000001 -0.000001 0.404123 2.475595 -3.315840 -10.740916 -3.454138 92.228953 0.000042 99.618343 -0.000067 -35.395645 -5.025076 78.135062 -3.078552 -6.421987 -6.333174 0.937921 -0.115732 1.884197 0.000002 0.000000 -0.000001 0.488334 -2.581640 24.098345 0.159025 -1.481519 12.252757 0.000002 -0.000003 -0.000000 0.501651 -2.614965 24.403648 0.143527 -1.408293 11.638193 0.000004 -0.000003 0.000000 0.506621 -2.626891 24.484247 0.140218 -1.392179 11.502993 -0.000001 -0.000002 -0.000004 0.511999 -2.638810 24.490912 0.140211 -1.392131 11.502675 -0.000002 -0.000001 0.000000 0.000000 -0.000001 -0.000000 -0.000000 0.000000 0.000000 -0.000000 0.000000 -0.000000 -0.000000 0.000000 0.000000 -0.000000 0.000000 0.000000 -0.000000 0.000000 0.000000 -0.000000 0.000000 0.000000 -0.000000 0.000000 0.000000 -0.000000 0.000000 0.000000 -0.000000 0.000000 0.000000 -0.000000 0.000000 0.000000 -0.000000 0.000001 -0.000001 -0.000000 0.000001 -0.000001 -0.000000 0.000001 -0.000001 
146.189407 13.211655 54.290020 100.718379 7.453604 -116.734695 -0.000001 0.000000 0.000001 -9.874753 16.822133 7.114007 48.232771 17.074547 -0.954096 -23.640243 8.283992 -17.067726 -0.000001 -0.000000 -0.000001 -0.000001 -0.000001 -0.000000 -9.072085 15.400026 0.879016 32.129387 2.384810 0.491101 14.787124 3.312733 35.176888 0.000000 -0.000001 0.000001 -0.000000 0.000000 -0.000003 0.195028 -1.839334 -0.800902 0.479364 -3.967379 0.706293 0.479365 -3.967368 0.706290 12.243170 -3.656799 -1.677288 -15.983421 -28.168469 7.442589 -0.000000 -0.000001 -0.000000 -0.000000 -0.000001 -0.000000 -0.000000 -0.000001 -0.000001 -0.000000 -0.000001 -0.000000 0.000002 -0.000001 -0.000000 -0.000000 -0.000001 -0.000000 0.000002 -0.000001 -0.000000 -0.000000 -0.000001 -0.000000 -0.000000 -0.000001 -0.000000 5.938721 -35.975733 2.496858 -68.896576 33.547765 -2.843533 0.000013 -123.896626 0.000006 35.488020 1.368499 31.628574 4.472112 3.252745 12.004097 5.672658 12.314598 1.656603 0.000001 0.000001 -0.000000 -1.414793 -3.355468 -18.065855 0.826139 3.275221 -28.306875 0.000000 -0.000000 -0.000000 0.313246 2.057052 -17.323540 0.832856 3.287642 -28.424170 0.000001 0.000000 0.000001 0.314266 2.060297 -17.341283 0.831328 3.284837 -28.397563 -0.000001 -0.000000 -0.000002 3.273289 11.702740 -16.518410 0.827971 -0.800644 -28.620723 -0.000000 0.000001 0.000003 -0.000001 -0.000000 0.000000 0.191450 1.291212 -1.895838 -14.051345 -2.766607 91.873899 -0.000400 99.920449 0.000408 -38.028011 -11.346209 74.401729 -2.902509 -3.495110 -4.323386 0.937928 -0.115733 1.884199 -0.000000 -0.000001 0.000002 -0.840174 0.133149 25.963791 0.156615 -1.470420 12.159451 0.000002 -0.000001 -0.000002 -0.840886 0.101413 26.203187 0.144456 -1.412806 11.675930 0.000001 -0.000001 0.000001 -0.839424 0.085599 26.294249 0.140328 -1.392689 11.507235 0.000002 0.000000 -0.000000 -0.834035 0.074945 26.291381 0.140666 -1.394355 11.521339 -0.000002 -0.000000 0.000000 -0.000000 -0.000000 0.000001 0.000001 0.000000 -0.000000 0.000001 -0.000001 0.000001 0.000001 0.000000 -0.000000 0.000001 0.000000 -0.000000 0.000001 0.000000 -0.000000 0.000001 -0.000001 0.000001 0.000001 0.000000 -0.000000 0.000001 0.000000 -0.000000 0.000001 0.000000 -0.000000 0.000001 -0.000001 0.000001 -0.000001 0.000000 0.000001 -0.000001 0.000000 0.000001 -0.000001 0.000000 0.000001 
145.761017 14.704430 54.787521 100.274246 6.502887 -117.266398 -0.000001 0.000000 -0.000001 -11.878507 14.785451 6.432177 47.171814 18.648418 -0.896301 -23.559512 11.119148 -16.339858 0.000004 -0.000001 -0.000000 -0.000001 0.000004 -0.000002 -12.220712 15.177268 2.042082 33.961562 2.729064 0.565662 13.461195 -0.491309 34.942705 0.000001 0.000000 0.000000 -0.000003 -0.000001 0.000001 0.546726 -1.812047 -0.525748 1.177460 -3.779887 1.023719 1.177473 -3.779883 1.023708 11.891701 -3.303766 -1.433705 -17.485790 -25.883775 7.534730 0.000001 0.000000 -0.000001 0.000001 0.000000 -0.000001 0.000001 0.000000 -0.000001 0.000001 0.000000 -0.000001 0.000003 -0.000002 -0.000001 0.000001 0.000000 -0.000001 0.000003 -0.000002 -0.000001 0.000001 0.000000 -0.000001 0.000001 0.000000 -0.000001 5.992751 -35.231629 3.073495 -70.196204 29.945977 -5.733198 -0.000036 -122.590353 -0.000029 36.591878 2.706186 28.365072 4.470841 3.266201 12.008048 5.672669 12.314601 1.656585 0.000001 -0.000000 0.000000 -1.402711 -3.383830 -17.864870 0.814952 3.254398 -28.110432 0.000001 0.000000 0.000002 0.306686 2.035902 -17.139858 0.819406 3.262715 -28.188795 -0.000000 0.000000 0.000002 0.306423 2.035023 -17.121720 0.822071 3.267689 -28.235647 -0.000002 0.000001 -0.000001 3.231615 11.689157 -16.314238 0.816446 -0.821856 -28.420825 0.000000 -0.000001 0.000003 0.000002 0.000000 0.000001 0.129558 0.914963 -0.444248 -18.354006 -2.067224 91.641686 0.000074 99.075514 -0.000060 -40.803338 -13.748645 69.879727 -2.721653 -0.927873 -0.915281 0.937930 -0.115739 1.884201 0.000001 -0.000001 0.000000 -2.335704 2.409960 29.368365 0.151352 -1.445676 11.951749 0.000001 -0.000002 -0.000000 -2.340382 2.393253 29.475111 0.145972 -1.420043 11.736703 0.000001 -0.000000 -0.000001 -2.342004 2.375384 29.562285 0.141825 -1.399976 11.568427 -0.000001 0.000001 -0.000001 -2.335190 2.368498 29.538970 0.143315 -1.407276 11.629469 -0.000001 0.000002 -0.000003 -0.000000 0.000003 -0.000000 -0.000001 0.000000 -0.000000 -0.000001 0.000000 0.000001 -0.000001 0.000000 -0.000000 -0.000001 0.000000 -0.000000 -0.000001 0.000000 -0.000000 -0.000001 0.000000 0.000002 -0.000001 0.000000 -0.000000 -0.000001 0.000000 -0.000000 -0.000001 0.000000 -0.000000 -0.000001 0.000000 0.000002 -0.000001 0.000000 -0.000001 -0.000001 0.000000 -0.000001 -0.000001 0.000000 -0.000001 
